<?xml version="1.0" standalone="no"?>
<!DOCTYPE svg PUBLIC "-//W3C//DTD SVG 20010904//EN"
 "http://www.w3.org/TR/2001/REC-SVG-20010904/DTD/svg10.dtd">
<svg version="1.0" xmlns="http://www.w3.org/2000/svg"
 width="512.000000pt" height="512.000000pt" viewBox="0 0 512.000000 512.000000"
 preserveAspectRatio="xMidYMid meet">
<metadata>
Created by potrace 1.14, written by Peter Selinger 2001-2017
</metadata>
<g transform="translate(0.000000,512.000000) scale(0.100000,-0.100000)"
fill="#000000" stroke="none">
<path d="M3372 4664 c-34 -24 -41 -52 -27 -111 26 -113 -1 -193 -87 -250 -73
-50 -129 -71 -368 -139 -152 -43 -243 -82 -332 -141 -148 -98 -241 -238 -255
-387 -5 -60 -4 -63 23 -85 23 -18 37 -22 68 -18 53 7 72 30 92 107 47 187 159
268 539 386 317 99 437 167 496 282 48 93 25 302 -38 352 -31 24 -80 26 -111
4z"/>
<path d="M3885 4478 c-25 -22 -27 -29 -28 -113 -2 -73 -7 -99 -27 -139 -49
-97 -124 -135 -412 -205 -261 -64 -370 -113 -467 -210 -71 -71 -131 -182 -131
-243 0 -44 40 -82 88 -82 52 0 65 11 107 99 60 126 172 200 373 246 26 6 54
12 62 14 8 2 49 11 90 19 245 52 364 120 447 255 70 112 73 340 6 366 -47 18
-81 15 -108 -7z"/>
<path d="M684 2893 c3 -170 8 -319 10 -333 3 -14 8 -65 11 -115 25 -369 106
-705 232 -960 69 -139 149 -250 259 -361 55 -55 96 -101 90 -101 -21 -1 -161
-14 -186 -18 -14 -2 -50 -7 -80 -10 -30 -3 -62 -8 -70 -10 -8 -3 -33 -7 -55
-10 -127 -15 -222 -56 -209 -89 5 -14 111 -52 174 -61 19 -3 42 -8 50 -10 8
-2 40 -7 70 -10 30 -3 69 -8 85 -10 17 -2 46 -6 65 -9 19 -3 82 -8 140 -11 58
-4 115 -8 128 -10 119 -19 1101 -28 1432 -12 228 10 378 20 485 33 22 3 61 7
86 9 25 2 74 9 110 15 35 6 78 13 94 16 155 27 211 76 123 108 -63 22 -107 34
-158 41 -25 4 -52 9 -60 10 -8 1 -40 6 -70 10 -30 3 -66 8 -80 10 -14 2 -65 7
-115 11 l-89 7 66 61 c112 105 197 215 273 355 37 69 43 75 75 77 466 33 753
185 864 459 84 208 40 459 -110 623 -103 113 -230 184 -429 237 l-120 32 0
167 1 166 -1549 0 -1550 0 7 -307z m840 15 c-17 -54 -17 -56 -36 -158 -14 -69
-17 -428 -5 -540 5 -54 25 -191 41 -285 20 -115 92 -398 136 -534 11 -35 18
-66 16 -68 -7 -7 -113 86 -180 161 -143 156 -270 367 -339 562 -34 94 -85 304
-93 379 -3 33 -9 80 -13 105 -6 41 -7 247 -3 378 l2 52 244 0 245 0 -15 -52z
m2287 -359 c129 -42 205 -101 241 -187 19 -48 23 -74 23 -162 -1 -61 -7 -122
-14 -145 -41 -118 -133 -182 -324 -221 -43 -8 -81 -14 -83 -11 -3 3 4 41 15
86 11 45 27 121 36 169 8 48 17 98 20 112 2 14 7 50 9 80 3 30 8 78 11 105 7
58 13 130 14 163 1 25 5 26 52 11z"/>
</g>
</svg>
